<?xml version="1.0" encoding="utf-8"?>
<!-- Generator: Adobe Illustrator 26.5.0, SVG Export Plug-In . SVG Version: 6.00 Build 0)  -->
<svg version="1.1" id="Layer_1" xmlns="http://www.w3.org/2000/svg" xmlns:xlink="http://www.w3.org/1999/xlink" x="0px" y="0px"
	 viewBox="0 0 720 720" style="enable-background:new 0 0 720 720;" xml:space="preserve">
<style type="text/css">
	.st0{fill:#FFFFFF;stroke:#000000;stroke-width:3;stroke-miterlimit:10;}
	.st1{stroke:#000000;stroke-width:3;stroke-miterlimit:10;}
	.st2{fill:none;stroke:#000000;stroke-width:3;stroke-miterlimit:10;}
	.st3{fill:#FFFFFF;stroke:#000000;stroke-miterlimit:10;}
	.st4{fill:#FFFFFF;stroke:#000000;stroke-width:4;stroke-miterlimit:10;}
</style>
<g>
	<g>
		<path class="st0" d="M17.52,358.96c1.42,0.89,8.56-9.69,25.81-22.44c9.84-7.28,18.97-12.29,25.73-15.61
			c-2.82,5.39-21.73,42.99-3.01,78.56c19.79,37.61,73.75,58,127.73,42.24c12.19-3.26,28.26-8.96,44.63-19.57
			c68.81-44.6,97.52-144.38,70.35-216.49c-4.18-11.11-8.95-19.56-11.94-24.47c-6.24-14.9-13.34-38.34-10.98-66.95
			c0.71-8.58,2.17-16.4,3.96-23.35c-1.73,1.75-14.67,14.5-31.96,12.38c-6.14-0.75-10.86-3.14-13.93-5.12
			c-3.35-2.28-7.79-5.52-12.68-9.79c-4.71-4.12-7.92-7.52-11.19-10.99c-1.67-1.77-3.76-4.05-12.04-13.76
			c-10.28-12.06-11.18-13.4-14.34-16.34c-5.37-5-10.51-8.36-14.1-10.44c5.44,8.42,10.88,16.85,16.32,25.27l0,0
			c3.27,4.78,6.54,9.56,9.82,14.34c2.76,4.2,6.35,9.8,10.37,16.5c0,0,7.48,12.32,13.36,23.85c47.21,92.4,21.42,163.87,21.42,163.87
			c-15.06,41.73-45.47,69.23-68.14,85.15c-12.16,6.03-54.76,26.63-75.62,11.68c-17.09-12.25-17.18-46.59-0.1-91.93
			c5.57,11.28,11.13,22.58,16.71,33.86c-3.37-9.29-8.55-27.77-4.88-50.77c0.8-5.05,1.96-9.77,3.32-14.12
			c1.27-4.13,2.73-7.94,4.28-11.39c3.29-7.4,6.9-13.21,9.71-17.28c-18.83,11.24-46.63,30.39-72.99,60.41
			C33.15,320.45,14.98,357.37,17.52,358.96z"/>
	</g>
	<path class="st1" d="M294.42,267.87c-1.27,2.95,4.24,5.96,3.55,9.91c-0.79,4.46-9.02,7.87-13.23,5.73
		c-4.74-2.4-4.93-11.19-0.43-19.62c4.5-8.44,12-13.34,16.74-10.94c3.35,1.7,5.44,7.36,3.52,10.34
		C302.32,266.77,295.75,264.79,294.42,267.87z"/>
	<path class="st1" d="M272.5,263.11c-1.2,2.86,4.62,6,4.04,9.86c-0.65,4.35-9.03,7.4-13.47,5.16c-4.99-2.53-5.52-11.17-1.19-19.29
		c4.34-8.13,11.9-12.67,16.9-10.14c3.53,1.79,5.91,7.43,4.03,10.28C280.63,262.3,273.75,260.13,272.5,263.11z"/>
	<g>
		<path class="st2" d="M297.33,308.34c-2.49,1.91-8.95,6.39-17.39,6.97c-14.62,1.01-22.13-10.57-22.88-11.79"/>
		<path class="st2" d="M300.09,298.06c-0.23,0.3-4.5,6.16-3.23,12.03c0.72,3.3,2.8,4.82,3.58,5.32"/>
	</g>
</g>
<g>
	<path class="st3" d="M227,399.11"/>
	<g>
		<g>
			<path class="st4" d="M212.24,360.61c-0.1,0.72-4.9-1.24-7.63,0.81c-1.03,0.78-1.63,1.97-1.63,1.97
				c-0.55,1.11-0.56,2.04-0.66,2.82c-0.03,0.21-0.47,3.42-2.35,4.76c-3.13,2.24-9.04,0.06-9.88-0.26c-1.18-0.45-2.14-0.95-2.82-1.35
				c1.19,0.23,3.3,0.46,5.06-0.5c1.71-0.92,2.43-3.01,2.85-5.02c0.54-2.6-0.61-3.65,0.47-5.41c1.12-1.83,3.46-2.29,4.26-2.42
				C205.07,355.15,212.36,359.71,212.24,360.61z"/>
			<path class="st4" d="M221.01,367.35c-0.21,0.68-4.84-1.83-7.97-0.23c-1.18,0.6-1.98,1.67-1.98,1.67
				c-0.74,0.98-0.89,1.87-1.11,2.6c-0.06,0.2-1.02,3.2-3.15,4.23c-3.57,1.72-9.31-1.13-10.12-1.54c-1.15-0.58-2.06-1.19-2.7-1.66
				c1.19,0.38,3.33,0.87,5.28,0.19c1.9-0.66,2.97-2.55,3.7-4.41c0.95-2.41-0.07-3.56,1.31-5.09c1.44-1.6,3.91-1.72,4.76-1.75
				C214.48,361.21,221.27,366.51,221.01,367.35z"/>
		</g>
		<g>
			<path class="st4" d="M229.15,373.11c-0.3,0.63-4.74-2.26-8.13-1.05c-1.29,0.46-2.23,1.4-2.23,1.4c-0.88,0.87-1.13,1.71-1.45,2.39
				c-0.09,0.19-1.43,2.98-3.75,3.75c-3.86,1.29-9.39-2.05-10.18-2.54c-1.1-0.68-1.96-1.36-2.56-1.88c1.17,0.49,3.3,1.18,5.39,0.73
				c2.03-0.44,3.35-2.15,4.33-3.87c1.27-2.22,0.37-3.44,1.97-4.77c1.67-1.39,4.22-1.26,5.08-1.19
				C223.21,366.5,229.52,372.32,229.15,373.11z"/>
			<path class="st4" d="M236.4,381.24c-0.4,0.56-4.52-2.78-8.2-2.07c-1.39,0.27-2.51,1.04-2.51,1.04c-1.04,0.72-1.43,1.48-1.86,2.09
				c-0.12,0.17-1.93,2.65-4.43,3.08c-4.17,0.72-9.34-3.19-10.08-3.75c-1.03-0.79-1.81-1.55-2.34-2.12c1.13,0.62,3.21,1.56,5.43,1.41
				c2.15-0.15,3.78-1.61,5.05-3.11c1.65-1.95,0.91-3.23,2.76-4.29c1.93-1.1,4.53-0.64,5.41-0.47
				C231.31,374.17,236.91,380.53,236.4,381.24z"/>
		</g>
		<path class="st4" d="M217.78,365.24"/>
	</g>
	<g>
		<g>
			<path class="st4" d="M242.6,388.55c-0.46,0.52-4.35-3.06-8.16-2.66c-1.44,0.15-2.66,0.82-2.66,0.82
				c-1.12,0.62-1.59,1.33-2.09,1.89c-0.14,0.15-2.21,2.43-4.8,2.66c-4.32,0.38-9.23-3.84-9.92-4.44c-0.98-0.85-1.7-1.66-2.19-2.25
				c1.1,0.69,3.13,1.77,5.4,1.79c2.2,0.02,4-1.27,5.43-2.64c1.86-1.77,1.22-3.07,3.2-3.96c2.07-0.93,4.68-0.27,5.56-0.03
				C238.06,381.26,243.18,387.9,242.6,388.55z"/>
			<path class="st4" d="M248.12,397.51c-0.56,0.43-4.01-3.49-7.99-3.6c-1.51-0.04-2.86,0.43-2.86,0.43
				c-1.25,0.44-1.84,1.06-2.44,1.52c-0.16,0.13-2.65,2.02-5.34,1.9c-4.5-0.21-8.9-4.87-9.52-5.54c-0.87-0.94-1.49-1.8-1.91-2.43
				c1.02,0.8,2.95,2.1,5.28,2.42c2.26,0.31,4.31-0.69,5.99-1.8c2.18-1.44,1.73-2.77,3.91-3.35c2.27-0.61,4.85,0.35,5.72,0.7
				C244.58,389.97,248.82,396.97,248.12,397.51z"/>
		</g>
		<g>
			<path class="st4" d="M253.5,405.43c-0.62,0.36-3.68-3.78-7.74-4.3c-1.54-0.2-2.98,0.12-2.98,0.12c-1.33,0.29-2.02,0.83-2.68,1.22
				c-0.18,0.11-2.96,1.68-5.7,1.28c-4.58-0.67-8.52-5.62-9.07-6.33c-0.78-1-1.31-1.89-1.66-2.54c0.95,0.88,2.76,2.33,5.11,2.88
				c2.28,0.53,4.49-0.22,6.35-1.12c2.41-1.16,2.11-2.49,4.41-2.83c2.4-0.35,4.92,0.85,5.77,1.27
				C250.79,397.8,254.27,404.99,253.5,405.43z"/>
			<path class="st4" d="M256.77,414.81c-0.69,0.26-3.2-4.08-7.29-5.12c-1.55-0.39-3.08-0.28-3.08-0.28c-1.42,0.1-2.2,0.53-2.95,0.81
				c-0.21,0.08-3.3,1.21-6.06,0.47c-4.61-1.24-7.89-6.47-8.35-7.22c-0.65-1.05-1.05-1.97-1.31-2.64c0.84,0.96,2.48,2.58,4.81,3.42
				c2.26,0.81,4.65,0.38,6.7-0.23c2.66-0.79,2.55-2.09,4.97-2.12c2.52-0.02,4.93,1.45,5.74,1.97
				C255.16,407.18,257.64,414.48,256.77,414.81z"/>
		</g>
		<path class="st4" d="M245.9,394.49"/>
	</g>
</g>
<g>
	<path class="st3" d="M194.81,384.75"/>
	<g>
		<g>
			<path class="st4" d="M209.75,429.12c0.1-0.83,4.96,1.43,7.72-0.93c1.05-0.89,1.65-2.28,1.65-2.28c0.56-1.28,0.56-2.35,0.66-3.25
				c0.03-0.25,0.48-3.94,2.38-5.49c3.17-2.58,9.15-0.07,10,0.29c1.2,0.51,2.17,1.1,2.86,1.55c-1.21-0.27-3.34-0.53-5.13,0.57
				c-1.73,1.07-2.46,3.47-2.88,5.78c-0.54,3,0.62,4.21-0.47,6.23c-1.14,2.11-3.5,2.64-4.31,2.79
				C217.01,435.41,209.63,430.16,209.75,429.12z"/>
			<path class="st4" d="M200.87,421.35c0.21-0.78,4.9,2.11,8.06,0.27c1.2-0.7,2.01-1.92,2.01-1.92c0.75-1.13,0.9-2.16,1.12-2.99
				c0.06-0.23,1.03-3.68,3.19-4.88c3.61-1.99,9.42,1.3,10.25,1.78c1.16,0.67,2.08,1.37,2.73,1.91c-1.2-0.43-3.37-1-5.35-0.22
				c-1.92,0.76-3,2.94-3.75,5.08c-0.96,2.77,0.07,4.1-1.33,5.87c-1.46,1.84-3.96,1.99-4.81,2.01
				C207.48,428.43,200.6,422.33,200.87,421.35z"/>
		</g>
		<g>
			<path class="st4" d="M192.63,414.72c0.3-0.73,4.8,2.61,8.23,1.21c1.3-0.53,2.26-1.62,2.26-1.62c0.89-1.01,1.15-1.97,1.47-2.75
				c0.09-0.22,1.45-3.43,3.79-4.32c3.91-1.49,9.51,2.37,10.3,2.92c1.12,0.78,1.99,1.57,2.59,2.16c-1.19-0.56-3.34-1.36-5.45-0.85
				c-2.05,0.5-3.39,2.48-4.38,4.46c-1.28,2.56-0.37,3.96-1.99,5.5c-1.69,1.6-4.27,1.45-5.15,1.37
				C198.64,422.33,192.25,415.63,192.63,414.72z"/>
			<path class="st4" d="M185.29,405.35c0.41-0.65,4.58,3.2,8.3,2.39c1.41-0.31,2.54-1.2,2.54-1.2c1.05-0.83,1.45-1.71,1.88-2.4
				c0.12-0.19,1.95-3.05,4.48-3.55c4.22-0.83,9.46,3.68,10.2,4.33c1.04,0.91,1.83,1.79,2.37,2.45c-1.14-0.71-3.25-1.8-5.49-1.62
				c-2.18,0.17-3.82,1.86-5.11,3.59c-1.67,2.25-0.92,3.72-2.79,4.94c-1.95,1.27-4.59,0.74-5.48,0.54
				C190.44,413.5,184.78,406.16,185.29,405.35z"/>
		</g>
		<path class="st4" d="M204.14,423.79"/>
	</g>
	<g>
		<g>
			<path class="st4" d="M179.02,396.92c0.47-0.6,4.41,3.53,8.26,3.06c1.46-0.18,2.69-0.94,2.69-0.94c1.14-0.71,1.61-1.53,2.11-2.17
				c0.14-0.18,2.24-2.8,4.86-3.06c4.37-0.44,9.34,4.42,10.04,5.12c0.99,0.98,1.72,1.91,2.22,2.59c-1.11-0.8-3.17-2.04-5.47-2.07
				c-2.23-0.03-4.05,1.47-5.49,3.04c-1.88,2.04-1.24,3.54-3.24,4.56c-2.09,1.07-4.73,0.31-5.63,0.04
				C183.61,405.32,178.43,397.67,179.02,396.92z"/>
			<path class="st4" d="M173.43,386.6c0.56-0.5,4.05,4.02,8.08,4.15c1.53,0.05,2.89-0.5,2.89-0.5c1.27-0.51,1.87-1.22,2.47-1.76
				c0.17-0.15,2.68-2.33,5.41-2.19c4.56,0.24,9.01,5.61,9.64,6.38c0.88,1.08,1.51,2.08,1.93,2.8c-1.03-0.92-2.98-2.42-5.34-2.79
				c-2.29-0.36-4.36,0.79-6.06,2.08c-2.21,1.66-1.75,3.19-3.95,3.86c-2.3,0.7-4.91-0.41-5.79-0.81
				C177.01,395.29,172.72,387.22,173.43,386.6z"/>
		</g>
		<g>
			<path class="st4" d="M167.99,377.46c0.63-0.41,3.72,4.36,7.83,4.96c1.56,0.23,3.02-0.14,3.02-0.14c1.35-0.34,2.04-0.96,2.72-1.4
				c0.19-0.12,2.99-1.93,5.77-1.47c4.64,0.77,8.62,6.47,9.18,7.29c0.79,1.15,1.33,2.18,1.68,2.93c-0.96-1.01-2.8-2.69-5.17-3.32
				c-2.31-0.62-4.55,0.25-6.43,1.29c-2.44,1.34-2.13,2.87-4.46,3.26c-2.43,0.41-4.98-0.97-5.84-1.46
				C170.73,386.26,167.2,377.98,167.99,377.46z"/>
			<path class="st4" d="M164.67,366.66c0.7-0.3,3.24,4.71,7.38,5.9c1.57,0.45,3.12,0.32,3.12,0.32c1.43-0.12,2.23-0.61,2.98-0.93
				c0.21-0.09,3.34-1.39,6.14-0.54c4.67,1.42,7.99,7.46,8.46,8.32c0.66,1.21,1.07,2.28,1.33,3.04c-0.85-1.11-2.51-2.98-4.87-3.94
				c-2.29-0.93-4.71-0.44-6.79,0.26c-2.69,0.91-2.58,2.41-5.03,2.44c-2.55,0.02-4.99-1.67-5.81-2.27
				C166.3,375.45,163.8,367.03,164.67,366.66z"/>
		</g>
		<path class="st4" d="M175.67,390.07"/>
	</g>
</g>
</svg>
